<svg width="100" height="100" xmlns="http://www.w3.org/2000/svg">
    <g>
        <title>Enemy Damaged 1</title>
        <ellipse ry="13.55502" rx="25.22832" id="svg_7" cy="50.1723" cx="63.48887" fill="#191919" stroke="#000" />
        <rect id="svg_6" height="34.91735" width="76.34675" y="47.53079" x="13.0711" fill="#999999" stroke="#000" />
        <rect fill="#482816" x="1.4876" y="66.2217" width="5.24344" height="5.33762" id="svg_11" stroke="#000"
            transform="rotate(45 4.10932 68.8905)" />
        <rect fill="#482816" x="4.46544" y="64.84269" width="85.03139" height="7.92452" id="svg_12" stroke="#000" />
        <rect fill="#482816" x="1.73917" y="54.90095" width="5.24344" height="5.33762" id="svg_13" stroke="#000"
            transform="rotate(45 4.36089 57.5698)" />
        <rect fill="#482816" x="4.46544" y="53.64773" width="85.03139" height="7.92452" id="svg_14" stroke="#000" />
        <rect fill="#999999" x="78.9308" y="53.77351" width="10.56603" height="18.9937" id="svg_15" stroke="#000" />
        <rect fill="#999999" x="18.42769" y="53.77351" width="22.51571" height="18.9937" id="svg_16" stroke="#000" />
        <rect fill="#999999" x="48.99371" y="53.77351" width="22.51571" height="18.9937" id="svg_17" stroke="#000" />
        <ellipse ry="14.97934" rx="14.04959" id="svg_3" cy="84.68825" cx="29.93191" fill="#000000" stroke="#000" />
        <ellipse ry="14.97934" rx="14.04959" id="svg_5" cy="84.89487" cx="71.46084" stroke="#000" fill="#000000" />
        <line stroke-dasharray="5,5" stroke-linecap="undefined" stroke-linejoin="undefined" id="svg_1" y2="50.55162"
            x2="28.62071" y1="51.37921" x1="13.17245" stroke="#000" fill="none" />
        <line stroke-linecap="undefined" stroke-linejoin="undefined" id="svg_2" y2="49.9999" x2="65.99998" y1="51.10335"
            x1="40.89656" stroke-dasharray="5,5" stroke="#000" fill="none" />
        <line stroke-linecap="undefined" stroke-linejoin="undefined" id="svg_4" y2="60.06885" x2="67.93102"
            y1="63.51713" x1="51.37931" stroke-dasharray="5,5" stroke="#000" fill="none" />
        <line stroke-linecap="undefined" stroke-linejoin="undefined" id="svg_8" y2="60.34472" x2="88.62065"
            y1="64.06885" x1="81.72411" stroke-dasharray="5,5" stroke="#000" fill="none" />
        <line stroke-linecap="undefined" stroke-linejoin="undefined" id="svg_9" y2="59.65506" x2="36.75863"
            y1="62.41368" x1="23.79313" stroke-dasharray="5,5" stroke="#000" fill="none" />
        <line stroke-linecap="undefined" stroke-linejoin="undefined" id="svg_10" y2="76.20677" x2="57.17241"
            y1="80.48263" x1="49.17241" stroke-dasharray="5,5" stroke="#000" fill="none" />
    </g>

</svg>