<svg width="100" height="100" xmlns="http://www.w3.org/2000/svg">

    <g>
        <title>Layer 1</title>
        <g id="Tower_Level1_Damaged1">
            <g id="svg_5" stroke="null">
                <rect fill="#999999" x="56.56884" y="26.43921" width="35.45642" height="4.29278" id="svg_3"
                    stroke="#000" />
                <rect fill="#999999" x="56.56884" y="33.37371" width="35.45642" height="4.29278" id="svg_4"
                    stroke="#000" />
                <ellipse fill="#191919" cx="49.37092" cy="41.62907" id="svg_2" rx="24.25965" ry="17.83157"
                    stroke="#000" />
                <rect fill="#565656" x="21.64561" y="39.978" width="55.45063" height="59.76877" id="svg_1"
                    stroke="#000" />
            </g>
        </g>
        <line id="svg_6" y2="73.41102" x2="52.54237" y1="76.05932" x1="75.3178" stroke-dasharray="5,5" stroke="#000"
            fill="none" />
        <line id="svg_7" y2="65.57203" x2="43.22034" y1="69.27966" x1="74.57627" stroke-dasharray="5,5" stroke="#000"
            fill="none" />
        <line id="svg_8" y2="56.14407" x2="36.97034" y1="56.5678" x1="70.86864" stroke-dasharray="5,5" stroke="#000"
            fill="none" />
        <line id="svg_9" y2="46.18644" x2="36.22881" y1="47.77542" x1="70.12712" stroke-dasharray="5,5" stroke="#000"
            fill="none" />
        <line id="svg_20" y2="80.9322" x2="27.54237" y1="95.02119" x1="70.02119" stroke-dasharray="5,5" stroke="#000"
            fill="none" />
        <line id="svg_21" y2="72.13983" x2="29.44915" y1="79.02542" x1="56.99153" stroke-dasharray="5,5" stroke="#000"
            fill="none" />
        <line id="svg_22" y2="64.72458" x2="22.35169" y1="59.85169" x1="33.68644" stroke-dasharray="5,5" stroke="#000"
            fill="none" />
        <line id="svg_23" y2="58.68644" x2="48.51695" y1="64.08898" x1="67.58475" stroke-dasharray="5,5" stroke="#000"
            fill="none" />
        <line id="svg_24" y2="89.19492" x2="27.22458" y1="95.02119" x1="47.13983" stroke-dasharray="5,5" stroke="#000"
            fill="none" />
        <line id="svg_25" y2="82.09746" x2="57.73305" y1="88.24153" x1="65.88983" stroke-dasharray="5,5" stroke="#000"
            fill="none" />
        <line id="svg_26" y2="34.00424" x2="85.06356" y1="35.80508" x1="78.38983" stroke-dasharray="5,5" stroke="#000"
            fill="none" />
        <line id="svg_27" y2="27.86017" x2="71.61017" y1="27.9661" x1="86.54661" stroke-dasharray="5,5" stroke="#000"
            fill="none" />
        <line id="svg_28" y2="30.61441" x2="47.13983" y1="34.2161" x1="60.16949" stroke-dasharray="5,5" stroke="#000"
            fill="none" />
        <line id="svg_29" y2="51.90678" x2="45.86864" y1="49.04661" x1="25.3178" stroke-dasharray="5,5" stroke="#000"
            fill="none" />
        <line id="svg_30" y2="70.55085" x2="26.80085" y1="63.55932" x1="37.92373" stroke-dasharray="5,5" stroke="#000"
            fill="none" />
        <line id="svg_31" y2="69.59746" x2="40.04237" y1="86.65254" x1="72.24576" stroke-dasharray="5,5" stroke="#000"
            fill="none" />
    </g>
</svg>